<svg xmlns="http://www.w3.org/2000/svg" version="1.1" xmlns:xlink="http://www.w3.org/1999/xlink" xmlns:svgjs="http://svgjs.dev/svgjs" width="2000" height="1500" viewBox="0 0 2000 1500"><rect width="2000" height="1500" fill="#ffffff"></rect><g transform="matrix(0.75,0,0,0.75,249.09154779283585,524.2004937749416)"><svg viewBox="0 0 396 119" data-background-color="#ffffff" preserveAspectRatio="xMidYMid meet" height="601" width="2000" xmlns="http://www.w3.org/2000/svg" xmlns:xlink="http://www.w3.org/1999/xlink"><g id="tight-bounds" transform="matrix(1,0,0,1,0.24008861730862918,0.11207152697048173)"><svg viewBox="0 0 395.52 118.77585694605902" height="118.77585694605902" width="395.52"><g><svg viewBox="0 0 395.52 118.77585694605902" height="118.77585694605902" width="395.52"><g><svg viewBox="0 0 395.52 118.77585694605902" height="118.77585694605902" width="395.52"><g id="textblocktransform"><svg viewBox="0 0 395.52 118.77585694605902" height="118.77585694605902" width="395.52" id="textblock"><g><svg viewBox="0 0 395.52 90.6460265790476" height="90.6460265790476" width="395.52"><path d="M394.594 19.442C392.735 10.033 387.435 7.417 387.435 7.417 371.165-2.274 350.86-0.185 332.619 1.207 300.414 1.264 268.339 3.334 236.208 4.444 168.767 4.613 100.749 1.828 33.643 8.697 27.339 10.804-6.54 9.111 1.121 20.646 3.129 25.445 10.456 30.77 10.232 35.174 11.236 35.945 12.631 34.176 13.226 35.287 15.309 38.279 18.711 36.867 21.501 38.636 17.614 43.36 20.403 47.293 23.062 51.414 18.377 52.486 12.371 51.978 9.675 55.535 9.396 58.113 7.89 57.624 6.235 57.511 5.026 57.435 2.59 57.718 2.999 58.527 4.394 61.293-1.594 62.893 2.162 65.603-0.422 68.538 3.948 71.079 3.353 74.259 3.278 74.899 3.687 75.444 4.338 75.595 7.22 76.404 3.018 77.985 3.464 79.697 33.029 91.402 65.104 83.31 95.394 88.692 103.259 84.929 97.346 90.028 100.489 89.238 102.943 88.316 104.728 92.136 107.499 89.972 107.927 89.351 107.276 87.883 108.8 88.165 109.6 88.316 110.307 88.278 110.418 87.413 110.586 86.114 109.117 86.923 108.726 86.246 112.947 82.821 111.906 90.969 115.866 90.631 115.68 89.633 114.528 88.203 116.889 88.391 119.232 86.961 119.306 85.775 121.389 88.993 121.463 89.69 121.835 90.179 122.43 90.518 128.938 87.017 135.409 91.76 142.233 90.179 146.417 88.448 150.433 91.12 154.672 90.461 156.16 89.934 157.666 88.993 159.098 90.574 176.632 90.913 195.319 89.501 211.943 90.631 256.364 88.523 303.836 91.496 350.674 88.711 361.719 87.638 373.192 86.114 383.958 84.891 383.958 84.891 392.679 81.541 392.679 66.487S394.538 53.314 394.817 41.327C395.096 29.34 396.398 28.851 394.538 19.442Z" opacity="1" fill="#ffcdea" data-fill-palette-color="tertiary"></path><g transform="matrix(1,0,0,1,55.76832,26.068561146666667)"><svg width="283.98335999999995" viewBox="4.38 -33.33 248.86 33.75" height="38.50890428571427" data-palette-color="#ffffff"><path d="M8.13 0L4.38 0 4.38-32.29 18.89-12.29 33.13-32.29 33.13 0 29.17 0 29.17-14.44Q29.17-15.87 29.2-17.55 29.24-19.24 29.44-21.39L29.44-21.39Q28.37-19.48 27.34-18.04 26.32-16.6 25.49-15.38L25.49-15.38 18.75-5.83 11.81-15.38Q10.94-16.6 9.95-18.04 8.96-19.48 7.85-21.39L7.85-21.39Q8.06-19.24 8.09-17.55 8.13-15.87 8.13-14.44L8.13-14.44 8.13 0ZM49.75 0.28L49.75 0.28Q46.91 0.28 44.55-1.16 42.19-2.6 40.78-5.03 39.37-7.47 39.37-10.42L39.37-10.42Q39.37-13.37 40.78-15.8 42.19-18.23 44.55-19.67 46.91-21.11 49.75-21.11L49.75-21.11Q51.91-21.11 53.8-20.31 55.69-19.51 57.08-18.09L57.08-18.09 57.08-20.83 60.55-20.83 60.55 0 57.08 0 57.08-2.74Q55.69-1.35 53.8-0.54 51.91 0.28 49.75 0.28ZM50.24-3.13L50.24-3.13Q52.22-3.13 53.83-4.11 55.45-5.1 56.4-6.75 57.36-8.4 57.36-10.42L57.36-10.42Q57.36-12.43 56.4-14.08 55.45-15.73 53.83-16.72 52.22-17.71 50.24-17.71L50.24-17.71Q48.26-17.71 46.65-16.72 45.03-15.73 44.08-14.08 43.12-12.43 43.12-10.42L43.12-10.42Q43.12-8.4 44.08-6.75 45.03-5.1 46.65-4.11 48.26-3.13 50.24-3.13ZM73.4 0L69.65 0 69.65-17.71 64.93-17.71 64.93-20.83 69.75-20.83 69.75-27.78 73.29-27.78 73.29-20.83 78.47-20.83 78.47-17.71 73.4-17.71 73.4 0ZM92.42 0.42L92.42 0.42Q89.37 0.42 86.87-1.04 84.37-2.5 82.87-4.97 81.38-7.43 81.38-10.42L81.38-10.42Q81.38-13.4 82.87-15.87 84.37-18.33 86.87-19.79 89.37-21.25 92.42-21.25L92.42-21.25Q94.68-21.25 96.66-20.45 98.64-19.65 100.13-18.33L100.13-18.33 98.99-13.61Q98.12-15.35 96.36-16.53 94.61-17.71 92.39-17.71L92.39-17.71Q90.37-17.71 88.73-16.72 87.08-15.73 86.1-14.08 85.13-12.43 85.13-10.42L85.13-10.42Q85.13-8.44 86.1-6.77 87.08-5.1 88.73-4.11 90.37-3.13 92.39-3.13L92.39-3.13Q94.61-3.13 96.36-4.27 98.12-5.42 98.99-7.22L98.99-7.22 100.13-2.5Q98.64-1.18 96.66-0.38 94.68 0.42 92.42 0.42ZM108.46 0L104.71 0 104.71-33.33 108.46-33.33 108.46-17.88Q109.64-19.51 111.38-20.38 113.12-21.25 115.09-21.25L115.09-21.25Q117.32-21.25 119.21-20.16 121.1-19.06 122.28-17 123.46-14.93 123.46-11.98L123.46-11.98 123.46 0 119.71 0 119.71-11.46Q119.71-13.92 118.24-15.82 116.76-17.71 114.09-17.71L114.09-17.71Q111.9-17.71 110.18-16.13 108.46-14.55 108.46-11.56L108.46-11.56 108.46 0ZM133.46 0L129.71 0 129.71-20.83 133.18-20.83 133.18-17.85Q134.33-19.55 136.08-20.4 137.83-21.25 139.78-21.25L139.78-21.25Q141.9-21.25 143.67-20.26 145.44-19.27 146.52-17.5L146.52-17.5Q147.73-19.38 149.66-20.31 151.58-21.25 153.74-21.25L153.74-21.25Q156.1-21.25 158.06-20.14 160.02-19.03 161.19-17.03 162.35-15.03 162.35-12.33L162.35-12.33 162.35 0 158.6 0 158.6-11.88Q158.6-14.72 156.98-16.2 155.37-17.67 153.25-17.67L153.25-17.67Q151.93-17.67 150.7-17.08 149.47-16.49 148.69-15.24 147.9-13.99 147.9-11.98L147.9-11.98 147.9 0 144.15 0 144.15-11.88Q144.15-13.85 143.37-15.14 142.59-16.42 141.36-17.07 140.13-17.71 138.81-17.71L138.81-17.71Q137.52-17.71 136.29-17.12 135.06-16.53 134.26-15.28 133.46-14.03 133.46-11.98L133.46-11.98 133.46 0ZM177.52 0.28L177.52 0.28Q174.67 0.28 172.31-1.16 169.95-2.6 168.54-5.03 167.14-7.47 167.14-10.42L167.14-10.42Q167.14-13.37 168.54-15.8 169.95-18.23 172.31-19.67 174.67-21.11 177.52-21.11L177.52-21.11Q179.67-21.11 181.56-20.31 183.46-19.51 184.85-18.09L184.85-18.09 184.85-20.83 188.32-20.83 188.32 0 184.85 0 184.85-2.74Q183.46-1.35 181.56-0.54 179.67 0.28 177.52 0.28ZM178.01-3.13L178.01-3.13Q179.99-3.13 181.6-4.11 183.21-5.1 184.17-6.75 185.12-8.4 185.12-10.42L185.12-10.42Q185.12-12.43 184.17-14.08 183.21-15.73 181.6-16.72 179.99-17.71 178.01-17.71L178.01-17.71Q176.03-17.71 174.41-16.72 172.8-15.73 171.84-14.08 170.89-12.43 170.89-10.42L170.89-10.42Q170.89-8.4 171.84-6.75 172.8-5.1 174.41-4.11 176.03-3.13 178.01-3.13ZM213.32 0L208.56 0 199.15-11.46 206.89-20.83 211.23-20.83 203.63-11.74 213.32 0ZM198.73 0L194.98 0 194.98-33.33 198.73-33.33 198.73 0ZM226.79 0.42L226.79 0.42Q223.52 0.42 220.93-1.04 218.35-2.5 216.87-5.02 215.4-7.53 215.4-10.63L215.4-10.63Q215.4-13.58 216.82-15.99 218.24-18.4 220.66-19.83 223.07-21.25 225.99-21.25L225.99-21.25Q228.87-21.25 231.26-19.88 233.66-18.51 235.08-16.18 236.51-13.85 236.51-10.9L236.51-10.9 236.51-9.38 222.9-9.38Q221.99-9.38 221.06-9.44 220.12-9.51 219.22-9.65L219.22-9.65Q219.6-6.88 221.73-5 223.87-3.13 226.82-3.13L226.82-3.13Q228.8-3.13 230.5-4.03 232.2-4.93 233.24-6.42L233.24-6.42 234.29-2.15Q232.79-0.94 230.87-0.26 228.94 0.42 226.79 0.42ZM219.11-12.19L219.11-12.19Q220.99-12.5 222.9-12.5L222.9-12.5 229.81-12.5Q230.57-12.5 231.32-12.45 232.06-12.4 232.83-12.33L232.83-12.33Q232.34-14.76 230.4-16.34 228.45-17.92 225.99-17.92L225.99-17.92Q223.45-17.92 221.54-16.23 219.63-14.55 219.11-12.19ZM245.26 0L241.51 0 241.51-20.83 244.98-20.83 244.98-17.01Q246.09-18.85 247.93-19.95 249.77-21.04 252.3-21.04L252.3-21.04 253.24-17.29Q252.58-17.5 251.71-17.5L251.71-17.5Q248.8-17.5 247.03-15.64 245.26-13.78 245.26-10.35L245.26-10.35 245.26 0Z" opacity="1" transform="matrix(1,0,0,1,0,0)" fill="#ffffff" class="wordmark-text-0" data-fill-palette-color="quaternary" id="text-0"></path></svg></g></svg></g><g transform="matrix(1,0,0,1,0,99.73705466720189)"><svg viewBox="0 0 395.52 19.03880227885714" height="19.03880227885714" width="395.52"><g transform="matrix(1,0,0,1,0,0)"><svg width="395.52" viewBox="4.49 -36.01 748.1 36.01" height="19.03880227885714" data-palette-color="#bc7fcd"><path d="M4.49-5L4.49-30Q4.49-31.03 4.88-31.95 5.27-32.86 5.96-33.53 6.64-34.2 7.56-34.61 8.47-35.01 9.5-35.01L9.5-35.01 28.49-35.01Q29.52-35.01 30.43-34.61 31.35-34.2 32.03-33.53 32.71-32.86 33.11-31.95 33.5-31.03 33.5-30L33.5-30 33.5-25.49 28.49-25.49 28.49-30 9.5-30 9.5-5 28.49-5 28.49-13.5 18.99-13.5 18.99-18.51 33.5-18.51 33.5-5Q33.5-3.98 33.11-3.06 32.71-2.15 32.03-1.46 31.35-0.78 30.43-0.39 29.52 0 28.49 0L28.49 0 9.5 0Q8.47 0 7.56-0.39 6.64-0.78 5.96-1.46 5.27-2.15 4.88-3.06 4.49-3.98 4.49-5L4.49-5ZM108.67-21.19L108.67-10.55 91.46-10.55 91.46-4.81 108.67-4.81 108.67 0 91.46 0Q90.49 0 89.61-0.38 88.73-0.76 88.08-1.4 87.43-2.05 87.06-2.93 86.68-3.81 86.68-4.81L86.68-4.81 86.68-21.19Q86.68-22.19 87.06-23.07 87.43-23.95 88.08-24.6 88.73-25.24 89.61-25.62 90.49-26 91.46-26L91.46-26 103.87-26Q104.87-26 105.75-25.62 106.62-25.24 107.27-24.6 107.92-23.95 108.3-23.07 108.67-22.19 108.67-21.19L108.67-21.19ZM103.87-21.19L91.46-21.19 91.46-15.36 103.87-15.36 103.87-21.19ZM159.85-21.19L159.85-26 166.2-26 166.2-34.01 171.01-34.01 171.01-26 179.56-26 179.56-21.19 171.01-21.19 171.01-4.81 179.56-4.81 179.56 0 171.01 0Q170.04 0 169.16-0.38 168.28-0.76 167.62-1.4 166.96-2.05 166.58-2.93 166.2-3.81 166.2-4.81L166.2-4.81 166.2-21.19 159.85-21.19ZM317.46-35.01L322.47-35.01 322.47 0 317.46 0 317.46-14.99 297.42-14.99 297.42 0 292.41 0 292.41-35.01 297.42-35.01 297.42-20 317.46-20 317.46-35.01ZM375.89-26L380.7-26 380.7 0 375.89 0 375.89-26ZM375.65-31.01L375.65-36.01 380.95-36.01 380.95-31.01 375.65-31.01ZM432.13-21.19L432.13-26 438.48-26 438.48-34.01 443.29-34.01 443.29-26 451.83-26 451.83-21.19 443.29-21.19 443.29-4.81 451.83-4.81 451.83 0 443.29 0Q442.31 0 441.43-0.38 440.55-0.76 439.89-1.4 439.23-2.05 438.85-2.93 438.48-3.81 438.48-4.81L438.48-4.81 438.48-21.19 432.13-21.19ZM521.71-21.19L509.31-21.19 509.31-4.81 521.71-4.81 521.71-9.2 526.52-9.2 526.52-4.81Q526.52-3.81 526.14-2.93 525.76-2.05 525.12-1.4 524.47-0.76 523.59-0.38 522.71 0 521.71 0L521.71 0 509.31 0Q508.33 0 507.45-0.38 506.57-0.76 505.93-1.4 505.28-2.05 504.9-2.93 504.52-3.81 504.52-4.81L504.52-4.81 504.52-21.19Q504.52-22.19 504.9-23.07 505.28-23.95 505.93-24.6 506.57-25.24 507.45-25.62 508.33-26 509.31-26L509.31-26 521.71-26Q522.71-26 523.59-25.62 524.47-25.24 525.12-24.6 525.76-23.95 526.14-23.07 526.52-22.19 526.52-21.19L526.52-21.19 526.52-16.8 521.71-16.8 521.71-21.19ZM602.21-21.19L602.21 0 597.4 0 597.4-21.19 584-21.19 584 0 579.21 0 579.21-36.01 584-36.01 584-21.41Q584.05-22.36 584.44-23.21 584.83-24.05 585.48-24.67 586.12-25.29 586.98-25.65 587.83-26 588.81-26L588.81-26 597.4-26Q598.4-26 599.28-25.62 600.16-25.24 600.81-24.6 601.46-23.95 601.83-23.07 602.21-22.19 602.21-21.19L602.21-21.19ZM676.9-21.19L676.9-10.55 659.69-10.55 659.69-4.81 676.9-4.81 676.9 0 659.69 0Q658.71 0 657.84-0.38 656.96-0.76 656.31-1.4 655.66-2.05 655.28-2.93 654.91-3.81 654.91-4.81L654.91-4.81 654.91-21.19Q654.91-22.19 655.28-23.07 655.66-23.95 656.31-24.6 656.96-25.24 657.84-25.62 658.71-26 659.69-26L659.69-26 672.09-26Q673.09-26 673.97-25.62 674.85-25.24 675.5-24.6 676.15-23.95 676.52-23.07 676.9-22.19 676.9-21.19L676.9-21.19ZM672.09-21.19L659.69-21.19 659.69-15.36 672.09-15.36 672.09-21.19ZM729.6-4.81L729.6-21.19Q729.6-22.19 729.97-23.07 730.35-23.95 731-24.6 731.65-25.24 732.53-25.62 733.4-26 734.38-26L734.38-26 747.78-26 747.78-36.01 752.59-36.01 752.59 0 747.78 0 747.78-4.39Q747.71-3.49 747.3-2.69 746.88-1.88 746.23-1.28 745.59-0.68 744.76-0.34 743.93 0 743 0L743 0 734.38 0Q733.4 0 732.53-0.38 731.65-0.76 731-1.4 730.35-2.05 729.97-2.93 729.6-3.81 729.6-4.81L729.6-4.81ZM734.38-21.19L734.38-4.81 747.78-4.81 747.78-21.19 734.38-21.19Z" opacity="1" transform="matrix(1,0,0,1,0,0)" fill="#bc7fcd" class="slogan-text-1" data-fill-palette-color="secondary" id="text-1"></path></svg></g></svg></g></svg></g></svg></g><g></g></svg></g><defs></defs></svg><rect width="395.52" height="118.77585694605902" fill="none" stroke="none" visibility="hidden"></rect></g></svg></g></svg>